<svg xmlns="http://www.w3.org/2000/svg" width="652.728" height="215.885"><path fill="gold" d="M24.67 47.586h24.142v24.143H24.67zm96.57 0h24.143v24.143H121.24z"/><path fill="#ffaf00" d="M24.67 71.729h48.285V95.87H24.67zm72.428 0h48.285V95.87H97.098z"/><path fill="#ff8205" d="M24.67 95.871h120.713v24.143H24.67z"/><path fill="#fa500f" d="M24.67 120.014h24.142v24.143H24.67zm48.285 0h24.143v24.143H72.955zm48.285 0h24.143v24.143H121.24z"/><path fill="#e10500" d="M.527 144.157h72.428v24.142H.527zm96.57 0h72.429v24.142H97.098z"/><path d="M217.81 144.157V71.73h21.886l13.142 49.404L265.83 71.73h21.936v72.427h-13.586V87.144l-14.377 57.013h-14.08l-14.327-57.013v57.013zm83.573-59.581V71.73h13.882v12.846zm0 59.581V91.69h13.882v52.467zm22.41-14.969 13.932-2.125q.89 4.053 3.606 6.152c3.297 2.894 12.543 2.665 15.711.123 1.966-1.352 2.519-4.576.84-6.324q-1.037-.987-4.644-1.829-16.797-3.705-21.293-6.768c-8.08-5.107-8.235-17.334-.84-23.27 5.88-6.02 26.236-5.959 32.706-1.135q5.236 3.508 7.214 10.374l-13.093 2.42c-1.378-4.693-4.734-6.31-9.88-6.323q-5.485 0-7.855 1.532c-1.972 1.28-2.174 3.943-.198 5.335q1.877 1.385 12.968 3.903c11.091 2.518 12.557 3.738 15.488 6.176 6.66 5.67 5.4 17.168-1.68 22.726-6.975 6.729-27.035 6.808-34.805.84q-6.25-4.348-8.177-11.808zm106.528 14.97h-13.883V91.69h12.895v7.46q3.31-5.285 5.953-6.966c4.59-2.866 10.504-1.794 15.143.939l-4.299 12.103c-6.272-4.172-12.86-2.712-14.648 5.139-1.565 4.525-1.099 25.975-1.16 33.792m35.651-36.461-12.597-2.273c3.388-11.41 10.291-14.83 22.725-14.92 9.391.124 16.054 1.213 20.232 7.78q1.854 3.386 1.853 12.426c.043 5.789-.595 21.69.518 26.407q.667 3.285 2.495 7.04h-13.734c-.414-.913-1.375-4.304-1.828-5.73-4.603 4.468-9.924 6.913-16.254 6.917-9.844.196-17.446-5.876-17.44-15.514-.037-5.758 2.904-10.795 8.078-13.264q3.828-1.854 11.042-3.236 9.731-1.829 13.487-3.41v-1.383q0-4.002-1.975-5.706c-1.902-1.948-10.515-2.489-13.241-.247q-2.075 1.458-3.36 5.114zm18.577 11.264c-2.528 1.054-13.828 2.876-16.008 4.545-3.597 2.365-3.466 7.165-.543 9.93 3.4 3.303 8.93 2.454 12.696-.346 4.593-3.29 3.736-8.215 3.854-14.13zm26.51 25.196V71.73h13.884v72.427zm120.016 0h-15.908l-6.324-16.45h-28.951l-5.978 16.45H558.4l28.21-72.427h15.463l29 72.427zm-26.925-28.654-9.98-26.876-9.781 26.876zm33.428 28.654V71.73h14.624v72.427zM408.206 91.69v11.067h-9.485v21.145l.272 7.485c1.45 3.802 5.385 2.381 9.165 1.112l1.185 10.77c-8.073 3.415-22.955 3.818-24.11-7.854-.32-1.796-.412-6.324-.444-11.512V102.76h-6.374V91.692h6.374V81.268l13.932-8.102v18.527h9.484z"/></svg>